# xmcd
#
# Track frame offsets: 
#        150
#        13800
#        28942
#        41787
#        55955
#        70280
#        86025
#        101365
#        114737
#        127595
#        143122
#        156602
#        169807
#        185090
#        200877
#
# Disc length: 2875 seconds
#
# Revision: 1
# Processed by: cddbd v1.5.2PL0 Copyright (c) Steve Scherf et al.
# Submitted via: ExactAudioCopy v0.99pb4
#
DISCID=e10b390f
DTITLE=Bessie Smith - Martin Scorsese Presents the Blues
DYEAR=2003
DGENRE=Blues
TTITLE0=A Good Man Is Hard to Find
TTITLE1=I Ain't Goin' to Play No Second Fiddle
TTITLE2=Me and My Gin
TTITLE3=Muddy Water (A Mississippi Moan)
TTITLE4=St. Louis Blues
TTITLE5='Tain't Nobody's Bizness If I Do
TTITLE6=Careless Love
TTITLE7=The Yellow Dog Blues
TTITLE8=Need a Little Sugar in My Bowl
TTITLE9=Down Hearted Blues
TTITLE10=Nobody Knows You When You're Down and Out
TTITLE11=On Revival Day (A Rhythmic Spiritual)
TTITLE12=Send Me to the 'Lectric Chair
TTITLE13=Gimme a Pigfoot and a Bottle of Beer
TTITLE14=Back Water Blues
EXTD=
EXTT0=
EXTT1=
EXTT2=
EXTT3=
EXTT4=
EXTT5=
EXTT6=
EXTT7=
EXTT8=
EXTT9=
EXTT10=
EXTT11=
EXTT12=
EXTT13=
EXTT14=
PLAYORDER=
